<?xml version="1.0" encoding="UTF-8"?><svg id="Layer_2" xmlns="http://www.w3.org/2000/svg" viewBox="0 0 1109.2 181.01"><defs><style>.cls-1{fill:#661a40;}</style></defs><g id="Layer_1-2"><path class="cls-1" d="m0,103.25c0-22.36,8.09-40.99,24.29-55.87,16.19-14.88,35.98-22.33,59.36-22.33,20.04,0,39.13,5.59,57.29,16.77v46.61h-.44c-4.94-16.84-13.43-30.89-25.49-42.15-12.06-11.25-25.92-16.88-41.6-16.88s-27.27,5.48-36.05,16.45c-8.79,10.97-13.18,25.09-13.18,42.37,0,21.49,6.93,39.61,20.8,54.35,13.87,14.74,31.33,22.11,52.39,22.11,5.81,0,11.83-.94,18.08-2.83,6.24-1.89,12.71-5.55,19.39-11,6.68-5.45,11.76-12.16,15.25-20.15l.87.22c-1.6,4.5-3.7,8.97-6.32,13.4-2.61,4.43-5.99,8.9-10.13,13.4-4.14,4.5-8.75,8.46-13.83,11.87-5.08,3.41-11.08,6.17-17.97,8.28-6.9,2.1-14.12,3.16-21.67,3.16-22.65,0-41.82-7.44-57.51-22.33C7.84,143.8,0,125.33,0,103.25Z"/><path class="cls-1" d="m144.64,143.33c0-12.05,3.74-22.73,11.22-32.02,7.48-9.29,17.82-16.77,31.04-22.44-4.79,3.92-9.22,9.44-13.29,16.55-4.07,7.12-6.1,15.25-6.1,24.4,0,10.6,2.58,19.31,7.73,26.14,5.15,6.83,12.45,10.24,21.89,10.24,7.84,0,14.16-2.61,18.95-7.84-15.54-45.45-25.27-70.86-29.19-76.24-4.65-6.82-11.76-9.07-21.35-6.75l-.22-.44c6.54-4.21,13.79-6.32,21.78-6.32,13.65,0,23.16,6.61,28.54,19.82,1.74,4.36,4.39,11.29,7.95,20.8,3.56,9.51,7.26,19.53,11.11,30.06,3.85,10.53,6.21,16.88,7.08,19.06,4.06,10.6,7.98,17.57,11.76,20.91h-30.28l-6.1-18.3c-7.41,13.36-18.59,20.04-33.54,20.04-11.33,0-20.66-3.52-27.99-10.56-7.33-7.04-11-16.08-11-27.12Z"/><path class="cls-1" d="m250.54,85.17v-.87l32.89-15.68v42.04c4.36-25.27,19.24-39.28,44.65-42.04l-5.23,24.83c-9.44-1.6-18.33.04-26.68,4.9-8.35,4.87-12.6,12.31-12.74,22.33v20.48c0,19.75,3.41,32.46,10.24,38.12h-34.42l1.31-61.43c.44-16.26-2.91-27.15-10.02-32.67Z"/><path class="cls-1" d="m329.54,85.17v-.87l32.89-15.68v42.04c3.92-22.8,16.48-36.45,37.68-40.95-7.55-2.03-13.83-6.17-18.84-12.42-5.01-6.24-7.52-13.43-7.52-21.56,0-9.87,3.52-18.3,10.56-25.27,7.04-6.97,15.5-10.46,25.38-10.46s18.33,3.45,25.38,10.35c7.04,6.9,10.56,15.29,10.56,25.16,0,6.68-1.49,12.27-4.47,16.77-2.98,4.5-7.23,6.75-12.74,6.75-4.36,0-8.06-1.49-11.11-4.47-3.05-2.97-4.57-6.64-4.57-11s1.52-7.88,4.57-11c3.05-3.12,6.75-4.68,11.11-4.68,3.77,0,7.04,1.2,9.8,3.59,2.76,2.4,4.5,5.41,5.23,9.04.29-2.32.44-4.06.44-5.23,0-9.29-3.34-17.21-10.02-23.74-6.68-6.54-14.74-9.8-24.18-9.8s-17.5,3.34-24.18,10.02-10.02,14.67-10.02,23.96,3.08,16.52,9.26,22.98c6.17,6.46,13.61,9.77,22.33,9.91l-5.23,24.83c-5.96-1.01-11.91-.73-17.86.87-5.96,1.6-11.04,4.72-15.25,9.37-4.21,4.65-6.32,10.31-6.32,16.99v20.48c0,19.75,3.41,32.46,10.24,38.12h-34.42l1.31-61.43c.44-16.26-2.91-27.15-10.02-32.67Zm79.51.44v-.87l32.89-16.12v72.54c0,19.75,3.41,32.46,10.24,38.12h-34.2l1.31-60.99c.14-16.55-3.27-27.45-10.24-32.67Z"/><path class="cls-1" d="m478.25,125.9c4.5-11.76,15.03-21.93,31.58-30.5,10.46-5.08,15.68-10.02,15.68-14.81,0-2.9-1.56-5.19-4.68-6.86-3.12-1.67-6.94-2.43-11.44-2.29-11.33.15-20.33,6.06-27.01,17.75-6.68,11.69-8.5,24.87-5.45,39.54,2.32,9.73,7.41,17.5,15.25,23.31,7.84,5.81,16.92,8.71,27.23,8.71,11.33,0,20.8-3.12,28.43-9.37,7.62-6.24,12.31-14.52,14.05-24.83h.44c-.29,14.81-5.63,27.59-16.01,38.34-10.38,10.75-23.13,16.12-38.23,16.12s-28.9-5.3-39.64-15.9c-10.75-10.6-16.12-23.81-16.12-39.64s5.48-29.41,16.45-40.3c10.96-10.89,24.43-16.41,40.41-16.56,9.58-.14,18.22,1.78,25.92,5.77,7.7,4,11.4,9.26,11.11,15.79-.58,10.17-10.89,17.14-30.93,20.91-17.43,3.63-29.77,8.57-37.03,14.81Z"/><path class="cls-1" d="m560.81,130.91c0-14.38,4.72-26.5,14.16-36.38,9.44-9.87,20.91-14.81,34.42-14.81,2.76,0,6.61.44,11.54,1.31-16.27-7.55-27.63-14.08-34.09-19.6-6.46-5.52-9.69-11.98-9.69-19.39,0-4.94,1.74-9,5.23-12.2,3.49-3.19,7.77-4.79,12.85-4.79s12.96.65,23.63,1.96c10.67,1.31,19.35,2.11,26.03,2.4v26.79c-2.91-2.47-6.64-5.84-11.22-10.13-4.57-4.28-7.99-7.44-10.24-9.48-2.25-2.03-4.94-3.95-8.06-5.77-3.12-1.81-5.99-2.79-8.6-2.94-2.47-.14-4.5.58-6.1,2.18s-2.4,3.78-2.4,6.53c.14,8.71,4.57,18.05,13.29,27.99,8.71,9.95,18.22,18.48,28.54,25.59,14.08,9.73,26.65,23.09,37.68,40.08,11.03,16.99,18,33.33,20.91,49.01h-24.83c-2.32-30.79-8.86-54.53-19.6-71.23,3.63,7.12,5.45,14.81,5.45,23.09,0,13.65-4.65,25.38-13.94,35.18-9.3,9.8-21.06,14.7-35.29,14.7s-25.34-4.86-35.07-14.59c-9.73-9.73-14.59-21.56-14.59-35.51Zm20.04-15.47c0,12.49,3.88,23.06,11.65,31.69,7.77,8.64,17.39,12.96,28.86,12.96,9.58,0,17.68-3.63,24.29-10.89,6.61-7.26,9.76-15.83,9.48-25.7-.29-11.33-4.72-20.98-13.29-28.97-8.57-7.98-18.66-12.12-30.28-12.42-9.44,0-16.92,2.98-22.44,8.93-5.52,5.96-8.28,14.09-8.28,24.4Z"/><path class="cls-1" d="m736.81,179.27h-44c6.68-8.71,10.02-23.74,10.02-45.09v-62.3c0-21.35-3.34-36.38-10.02-45.09h43.57c25.99,0,46.87,6.97,62.63,20.91,15.75,13.94,23.63,32.31,23.63,55.11s-7.84,41.42-23.52,55.44c-15.68,14.02-36.45,21.02-62.3,21.02Zm-9.58-149.86v147.25h7.84c16.41,0,30.75-7.08,43.02-21.24,12.27-14.16,18.41-31.69,18.41-52.6s-6.21-38.01-18.62-52.17-26.9-21.24-43.46-21.24h-7.19Z"/><path class="cls-1" d="m823.13,143.33c0-12.05,3.74-22.73,11.22-32.02,7.48-9.29,17.82-16.77,31.04-22.44-4.79,3.92-9.22,9.44-13.29,16.55-4.07,7.12-6.1,15.25-6.1,24.4,0,10.6,2.58,19.31,7.73,26.14,5.15,6.83,12.45,10.24,21.89,10.24,7.84,0,14.16-2.61,18.95-7.84-15.54-45.45-25.27-70.86-29.19-76.24-4.65-6.82-11.76-9.07-21.35-6.75l-.22-.44c6.54-4.21,13.79-6.32,21.78-6.32,13.65,0,23.16,6.61,28.54,19.82,1.74,4.36,4.39,11.29,7.95,20.8,3.56,9.51,7.26,19.53,11.11,30.06,3.85,10.53,6.21,16.88,7.08,19.06,4.06,10.6,7.98,17.57,11.76,20.91h-30.28l-6.1-18.3c-7.41,13.36-18.59,20.04-33.54,20.04-11.33,0-20.66-3.52-27.99-10.56-7.33-7.04-11-16.08-11-27.12Z"/><path class="cls-1" d="m900.46,71.23v-.87h37.68v.87c-1.16.73-1.74,2.98-1.74,6.75,0,4.36,1.23,9.58,3.7,15.68l23.74,58.81,15.03-33.33c4.79-10.89,7.19-20.62,7.19-29.19,0-7.84-1.52-14.08-4.57-18.73v-.87h26.79v.87c-6.54,7.26-14.31,20.77-23.31,40.52l-21.13,46.61v20.91h-13.94l-31.8-77.11c-7.7-18.59-13.58-28.9-17.64-30.93Z"/><path class="cls-1" d="m1025.12,125.9c4.5-11.76,15.03-21.93,31.58-30.5,10.46-5.08,15.68-10.02,15.68-14.81,0-2.9-1.56-5.19-4.68-6.86-3.12-1.67-6.94-2.43-11.44-2.29-11.33.15-20.33,6.06-27.01,17.75-6.68,11.69-8.5,24.87-5.45,39.54,2.32,9.73,7.41,17.5,15.25,23.31,7.84,5.81,16.92,8.71,27.23,8.71,11.33,0,20.8-3.12,28.43-9.37,7.62-6.24,12.31-14.52,14.05-24.83h.44c-.29,14.81-5.63,27.59-16.01,38.34-10.38,10.75-23.13,16.12-38.23,16.12s-28.9-5.3-39.64-15.9c-10.75-10.6-16.12-23.81-16.12-39.64s5.48-29.41,16.45-40.3c10.96-10.89,24.43-16.41,40.41-16.56,9.58-.14,18.22,1.78,25.92,5.77,7.7,4,11.4,9.26,11.11,15.79-.58,10.17-10.89,17.14-30.93,20.91-17.43,3.63-29.77,8.57-37.03,14.81Z"/></g></svg>