<?xml version="1.0" encoding="UTF-8"?><svg id="Layer_2" xmlns="http://www.w3.org/2000/svg" viewBox="0 0 644.62 128.56"><defs><style>.cls-1{fill:#fff;}</style></defs><g id="Layer_1-2"><path class="cls-1" d="m0,63.52C.12,46.03,5.94,31.08,17.46,18.68,28.98,6.27,42.12.07,56.89.07c15.83,0,28.68,6.18,38.55,18.52,9.86,12.35,14.8,27.38,14.8,45.1-.12,17.37-5.94,32.26-17.46,44.66-11.52,12.41-24.67,18.61-39.43,18.61-15.83,0-28.68-6.17-38.55-18.52C4.93,96.1,0,81.12,0,63.52Zm23.57-31.55c0,12.41,1.83,25.23,5.49,38.46,3.66,13.23,9.13,24.7,16.39,34.38,7.27,9.69,15.21,14.53,23.84,14.53,11.58,0,17.37-8.09,17.37-24.28,0-12.41-1.83-25.23-5.49-38.46-3.66-13.23-9.13-24.69-16.39-34.38-7.27-9.69-15.21-14.53-23.84-14.53-11.58,0-17.37,8.09-17.37,24.28Z"/><path class="cls-1" d="m114.13,91.17c0-8.86,2.42-16.13,7.27-21.8,4.84-5.67,10.57-9.69,17.19-12.05-8.98-8.74-13.47-18.49-13.47-29.24,0-8.74,3.4-15.6,10.19-20.56C142.11,2.55,150.47.07,160.39.07c5.43,0,10.66.86,15.68,2.57,5.02,1.71,9.36,4.61,13.03,8.68,3.66,4.08,5.49,8.95,5.49,14.62,0,8.39-6.32,16.19-18.96,23.39,10.04,5.44,17.75,11.34,23.13,17.72,5.38,6.38,8.06,14,8.06,22.86s-4.34,17.25-13.03,25.17c-8.68,7.92-19.35,11.87-31.99,11.87-8.39,0-16.1-1.21-23.13-3.63-7.03-2.42-12.88-6.41-17.55-11.96-4.67-5.55-7-12.29-7-20.2Zm22.51-6.03c0,10.04,3.1,18.99,9.3,26.85,6.2,7.86,13.44,11.79,21.71,11.79,6.85,0,12.58-1.71,17.19-5.14,4.61-3.43,6.91-7.91,6.91-13.47,0-3.07-.65-5.91-1.95-8.51-1.3-2.6-3.34-5.05-6.11-7.35-2.78-2.3-5.44-4.28-7.98-5.94-2.54-1.65-5.94-3.78-10.19-6.38-4.25-2.6-7.68-4.79-10.28-6.56-5.56-3.78-9.81-6.97-12.76-9.57-3.9,4.73-5.85,12.82-5.85,24.28Zm1.42-68.94c0,5.2,2.81,10.16,8.42,14.89,5.61,4.73,13.91,10.1,24.9,16.13,4.49-5.43,6.73-11.7,6.73-18.79s-2.13-13.03-6.38-18.17-9.99-7.71-17.19-7.71c-4.25,0-8.06,1.06-11.43,3.19-3.37,2.13-5.05,5.61-5.05,10.46Z"/><path class="cls-1" d="m226.14,128.56c-4.49,0-8.3-1.54-11.43-4.61-3.13-3.07-4.7-6.79-4.7-11.17s1.56-8.15,4.7-11.34c3.13-3.19,6.94-4.79,11.43-4.79s8.24,1.6,11.25,4.79c3.01,3.19,4.52,6.97,4.52,11.34s-1.48,8.24-4.43,11.25c-2.95,3.01-6.73,4.52-11.34,4.52Z"/><path class="cls-1" d="m238.73,63.52c.12-17.48,5.94-32.43,17.46-44.84C267.7,6.27,280.85.07,295.62.07c15.83,0,28.68,6.18,38.55,18.52,9.86,12.35,14.8,27.38,14.8,45.1-.12,17.37-5.94,32.26-17.46,44.66-11.52,12.41-24.67,18.61-39.43,18.61-15.83,0-28.68-6.17-38.55-18.52-9.87-12.35-14.8-27.32-14.8-44.93Zm23.57-31.55c0,12.41,1.83,25.23,5.49,38.46,3.66,13.23,9.13,24.7,16.39,34.38,7.27,9.69,15.21,14.53,23.84,14.53,11.58,0,17.37-8.09,17.37-24.28,0-12.41-1.83-25.23-5.49-38.46-3.66-13.23-9.13-24.69-16.39-34.38-7.27-9.69-15.21-14.53-23.84-14.53-11.58,0-17.37,8.09-17.37,24.28Z"/><path class="cls-1" d="m448.03,53.59c0,12.88-3.72,24.99-11.17,36.33s-17.31,20.35-29.6,27.03c-12.29,6.68-25.34,10.01-39.17,10.01l-.89-1.06c12.76-.47,23.75-4.9,32.96-13.29,9.22-8.39,15.3-18.61,18.25-30.66-3.31,4.49-8.27,7.21-14.89,8.15-7.68,1.06-15.13.15-22.33-2.75-7.21-2.89-13.35-7.94-18.43-15.15-5.08-7.21-7.8-15.77-8.15-25.7-.47-12.52,2.89-23.24,10.1-32.17,7.21-8.92,17.07-13.67,29.6-14.27,14.41-.71,26.97,3.99,37.66,14.09,10.69,10.1,16.04,23.25,16.04,39.43Zm-27.83,10.1c0-8.74-1.51-18.1-4.52-28.09-3.01-9.98-6.97-18.28-11.87-24.9-4.9-6.62-9.66-9.33-14.27-8.15-3.19.83-5.29,3.63-6.29,8.42-1.01,4.79-1.51,11.49-1.51,20.12s1.09,17.07,3.28,25.7c2.19,8.63,5.38,15.8,9.57,21.53,4.19,5.73,8.77,8.3,13.73,7.71,3.78-.47,6.79-2.89,9.04-7.27,1.89-4.13,2.84-9.16,2.84-15.06Z"/><path class="cls-1" d="m451.22,128.56c-4.49,0-8.3-1.54-11.43-4.61-3.13-3.07-4.7-6.79-4.7-11.17s1.56-8.15,4.7-11.34c3.13-3.19,6.94-4.79,11.43-4.79s8.24,1.6,11.25,4.79c3.01,3.19,4.52,6.97,4.52,11.34s-1.48,8.24-4.43,11.25c-2.95,3.01-6.73,4.52-11.34,4.52Z"/><path class="cls-1" d="m561.28,125.37l-85.42.18,3.01-8.51c5.2-14.77,12.82-30.19,22.86-46.26,2.24-3.66,5.49-8.74,9.75-15.24,4.25-6.5,7.59-11.61,10.01-15.33,2.42-3.72,4.7-7.74,6.82-12.05,2.13-4.31,3.37-7.83,3.72-10.54.59-4.96-.09-8.71-2.04-11.25-1.95-2.54-4.82-3.75-8.6-3.63-4.73.12-9.3,2.28-13.74,6.47-4.43,4.2-8.21,9.1-11.34,14.71-3.13,5.61-6.47,12.61-10.01,21h-.35V9.99c.83-.35,2.72-1.09,5.67-2.22,2.95-1.12,4.75-1.8,5.41-2.04.65-.24,2.15-.77,4.52-1.6,2.36-.83,4.02-1.33,4.96-1.51.94-.18,2.45-.5,4.52-.97,2.07-.47,3.87-.77,5.41-.89,1.53-.12,3.37-.27,5.49-.44s4.37-.27,6.73-.27c10.51,0,18.58,1.89,24.19,5.67,5.61,3.78,8.42,9.22,8.42,16.31,0,5.67-1.68,11.17-5.05,16.48s-7.89,10.43-13.56,15.33c-5.67,4.9-11.58,9.66-17.72,14.27-6.14,4.61-12.76,10.01-19.85,16.22-7.09,6.2-12.94,12.26-17.55,18.17l38.1-.18c2.72,0,5.23-.06,7.53-.18,2.3-.12,4.43-.32,6.38-.62,1.95-.29,3.63-.56,5.05-.8,1.42-.24,2.86-.62,4.34-1.15,1.48-.53,2.6-.91,3.37-1.15.77-.24,1.74-.68,2.92-1.33,1.18-.65,1.92-1.06,2.22-1.24.29-.18.97-.62,2.04-1.33s1.65-1.12,1.77-1.24v32.08Z"/><path class="cls-1" d="m567.48,33.39V1.49h70.01l-35.8,36.15c6.85.47,13.32,2.04,19.41,4.7,6.08,2.66,11.28,6.32,15.6,10.99,4.31,4.67,6.88,10.34,7.71,17.01.83,6.68-.65,14.21-4.43,22.6-2.01,4.37-4.85,8.33-8.51,11.87-3.66,3.54-7.5,6.41-11.52,8.6-4.02,2.19-8.39,4.11-13.11,5.76-4.73,1.66-8.98,2.87-12.76,3.63-3.78.77-7.53,1.39-11.25,1.86-3.72.47-6.32.74-7.8.8-1.48.06-2.51.09-3.1.09l-.89-.89c2.48-.24,5.41-.83,8.77-1.77,3.37-.94,7.62-2.42,12.76-4.43,5.14-2.01,9.86-5.02,14.18-9.04,4.31-4.02,7.35-8.62,9.13-13.82,3.9-11.58,2.19-20.47-5.14-26.67-7.33-6.2-18.25-9.54-32.79-10.01l33.14-34.38h-14.36c-11.46,0-21.21,2.96-29.24,8.86Z"/></g></svg>