<?xml version="1.0" encoding="UTF-8"?><svg id="Layer_2" xmlns="http://www.w3.org/2000/svg" viewBox="0 0 269.93 269.93"><defs><style>.cls-1{fill:#fffeff;}.cls-2{fill:#661a40;}</style></defs><g id="Layer_1-2"><circle class="cls-2" cx="134.96" cy="134.96" r="134.96"/><path class="cls-1" d="m44.03,134.13c0-9.87,3.57-18.1,10.72-24.67,7.15-6.57,15.88-9.86,26.21-9.86,8.85,0,17.28,2.47,25.29,7.41v20.58h-.19c-2.18-7.44-5.93-13.64-11.25-18.61-5.32-4.97-11.45-7.45-18.37-7.45s-12.04,2.42-15.92,7.26c-3.88,4.84-5.82,11.08-5.82,18.71,0,9.49,3.06,17.49,9.18,24,6.12,6.51,13.83,9.76,23.13,9.76,2.56,0,5.22-.42,7.98-1.25,2.76-.83,5.61-2.45,8.56-4.86,2.95-2.4,5.19-5.37,6.73-8.9l.38.1c-.71,1.99-1.63,3.96-2.79,5.92-1.15,1.96-2.64,3.93-4.47,5.91-1.83,1.99-3.86,3.74-6.11,5.24-2.25,1.51-4.89,2.73-7.93,3.65-3.05.93-6.24,1.39-9.57,1.39-10,0-18.47-3.29-25.39-9.86-6.92-6.57-10.39-14.73-10.39-24.48Z"/><path class="cls-1" d="m109.81,146.34c0-6.35,2.08-11.7,6.25-16.06,4.17-4.36,9.23-6.54,15.2-6.54,1.22,0,2.92.19,5.1.58-7.18-3.33-12.2-6.22-15.05-8.66-2.85-2.44-4.28-5.29-4.28-8.56,0-2.18.77-3.97,2.31-5.39,1.54-1.41,3.43-2.12,5.67-2.12s5.72.29,10.44.87,8.54.93,11.49,1.06v11.83c-1.28-1.09-2.93-2.58-4.95-4.47-2.02-1.89-3.53-3.29-4.52-4.18-.99-.9-2.18-1.75-3.56-2.55-1.38-.8-2.64-1.23-3.8-1.3-1.09-.06-1.99.26-2.69.96-.71.71-1.06,1.67-1.06,2.89.06,3.85,2.02,7.97,5.87,12.36,3.85,4.39,8.05,8.16,12.6,11.3,6.22,4.3,11.77,10.19,16.64,17.7,4.87,7.5,7.95,14.71,9.23,21.64h-10.96c-1.03-13.59-3.91-24.08-8.66-31.45,1.6,3.14,2.4,6.54,2.4,10.19,0,6.03-2.05,11.2-6.16,15.53-4.1,4.33-9.3,6.49-15.58,6.49s-11.19-2.15-15.48-6.44c-4.3-4.29-6.44-9.52-6.44-15.68Zm8.85-6.83c0,5.52,1.71,10.18,5.15,13.99,3.43,3.82,7.68,5.72,12.74,5.72,4.23,0,7.8-1.6,10.72-4.81,2.92-3.21,4.31-6.99,4.18-11.35-.13-5-2.08-9.26-5.87-12.79-3.78-3.53-8.24-5.35-13.37-5.48-4.17,0-7.47,1.31-9.91,3.94-2.44,2.63-3.66,6.22-3.66,10.77Z"/><path class="cls-1" d="m187.52,167.69h-19.43c2.95-3.85,4.42-10.48,4.42-19.91v-27.51c0-9.43-1.48-16.06-4.42-19.91h19.24c11.48,0,20.69,3.08,27.65,9.23s10.44,14.27,10.44,24.33-3.46,18.29-10.39,24.48c-6.92,6.19-16.09,9.28-27.51,9.28Zm-4.23-66.17v65.02h3.46c7.25,0,13.58-3.13,19-9.38,5.42-6.25,8.13-13.99,8.13-23.23s-2.74-16.78-8.22-23.03c-5.48-6.25-11.88-9.38-19.19-9.38h-3.17Z"/></g></svg>